<svg width="125" height="25" viewBox="0 0 125 25" fill="none" xmlns="http://www.w3.org/2000/svg">
<path d="M101.664 21H100.219V9H101.664V21ZM105.555 21H104.109V12.5469H105.555V21ZM103.992 10.3047C103.992 10.0703 104.062 9.8724 104.203 9.71094C104.349 9.54948 104.562 9.46875 104.844 9.46875C105.125 9.46875 105.339 9.54948 105.484 9.71094C105.63 9.8724 105.703 10.0703 105.703 10.3047C105.703 10.5391 105.63 10.7344 105.484 10.8906C105.339 11.0469 105.125 11.125 104.844 11.125C104.562 11.125 104.349 11.0469 104.203 10.8906C104.062 10.7344 103.992 10.5391 103.992 10.3047ZM115.031 16.8672C115.031 18.1589 114.734 19.1979 114.141 19.9844C113.547 20.7656 112.75 21.1562 111.75 21.1562C110.682 21.1562 109.857 20.7786 109.273 20.0234L109.203 21H107.875V9H109.32V13.4766C109.904 12.7526 110.708 12.3906 111.734 12.3906C112.76 12.3906 113.565 12.7786 114.148 13.5547C114.737 14.3307 115.031 15.3932 115.031 16.7422V16.8672ZM113.586 16.7031C113.586 15.7188 113.396 14.9583 113.016 14.4219C112.635 13.8854 112.089 13.6172 111.375 13.6172C110.422 13.6172 109.737 14.0599 109.32 14.9453V18.6016C109.763 19.487 110.453 19.9297 111.391 19.9297C112.083 19.9297 112.622 19.6615 113.008 19.125C113.393 18.5885 113.586 17.7812 113.586 16.7031ZM121.781 18.7578C121.781 18.3672 121.633 18.0651 121.336 17.8516C121.044 17.6328 120.531 17.4453 119.797 17.2891C119.068 17.1328 118.487 16.9453 118.055 16.7266C117.628 16.5078 117.31 16.2474 117.102 15.9453C116.898 15.6432 116.797 15.2839 116.797 14.8672C116.797 14.1745 117.089 13.5885 117.672 13.1094C118.26 12.6302 119.01 12.3906 119.922 12.3906C120.88 12.3906 121.656 12.638 122.25 13.1328C122.849 13.6276 123.148 14.2604 123.148 15.0312H121.695C121.695 14.6354 121.526 14.2943 121.188 14.0078C120.854 13.7214 120.432 13.5781 119.922 13.5781C119.396 13.5781 118.984 13.6927 118.688 13.9219C118.391 14.151 118.242 14.4505 118.242 14.8203C118.242 15.1693 118.38 15.4323 118.656 15.6094C118.932 15.7865 119.43 15.9557 120.148 16.1172C120.872 16.2786 121.458 16.4714 121.906 16.6953C122.354 16.9193 122.685 17.1901 122.898 17.5078C123.117 17.8203 123.227 18.2031 123.227 18.6562C123.227 19.4115 122.924 20.0182 122.32 20.4766C121.716 20.9297 120.932 21.1562 119.969 21.1562C119.292 21.1562 118.693 21.0365 118.172 20.7969C117.651 20.5573 117.242 20.224 116.945 19.7969C116.654 19.3646 116.508 18.8984 116.508 18.3984H117.953C117.979 18.8828 118.172 19.2682 118.531 19.5547C118.896 19.8359 119.375 19.9766 119.969 19.9766C120.516 19.9766 120.953 19.8672 121.281 19.6484C121.615 19.4245 121.781 19.1276 121.781 18.7578Z" fill="#FAC864"/>
<path d="M56.3036 20.8786V5.28439H63.4417V2.64453H46.2344V5.28439H53.3996V20.8786H56.3036Z" fill="white"/>
<path d="M66.9962 21.1508C71.5016 21.1508 74.5142 18.2932 74.5142 14.1293C74.5142 9.91096 71.5016 7.08059 66.9962 7.08059C62.5179 7.08059 59.5053 9.91096 59.5053 14.1293C59.5053 18.2932 62.5179 21.1508 66.9962 21.1508ZM66.9962 18.5381C63.7393 18.5381 62.3822 16.9869 62.3822 14.1293C62.3822 11.2445 63.7393 9.66602 66.9962 9.66602C70.2802 9.66602 71.6373 11.2445 71.6373 14.1293C71.6373 16.9869 70.2802 18.5381 66.9962 18.5381Z" fill="white"/>
<path d="M80.9114 5.77427V2.64453H77.9802V5.77427H80.9114ZM80.9114 20.8786V7.35274H77.9802V20.8786H80.9114Z" fill="white"/>
<path d="M93.9989 20.8786V18.2388H91.5562C89.8734 18.2388 89.1135 17.8033 89.1135 16.1432V9.8021H93.9989V7.35274H89.1135V2.64453H86.2094V7.35274H83.9296V9.8021H86.2094V16.3065C86.2094 19.5995 88.0007 20.8786 90.9048 20.8786H93.9989Z" fill="white"/>
<path fill-rule="evenodd" clip-rule="evenodd" d="M1.27968 0.000157106C1.38214 -0.00143452 1.48646 0.00947759 1.59074 0.0340597L15.5468 3.32401C15.564 3.32808 15.5812 3.33251 15.5983 3.33729C17.1053 3.76011 18.6939 3.79825 20.2169 3.45052C20.4512 3.35968 20.6937 3.284 20.9431 3.22471L34.3652 0.034595C34.4651 0.0108559 34.565 -0.000330994 34.6634 1.10944e-05C35.2342 -0.002282 35.753 0.384304 35.8928 0.960799C36.0561 1.63452 35.6399 2.31249 34.9631 2.47508L21.6981 5.66202L21.1598 5.80365C21.1057 5.81789 21.0515 5.83173 20.9973 5.84519C19.9304 6.31944 19.22 7.37893 19.22 8.56953L19.22 9.82007C19.22 10.6237 19.4533 11.4106 19.8925 12.0863L25.1451 20.1695C25.7834 21.1517 27.1857 21.2747 27.9875 20.4164L33.7349 14.2643C34.209 13.7568 35.0066 13.7281 35.5164 14.2C36.0262 14.672 36.0551 15.4661 35.581 15.9736L29.8336 22.1256C27.914 24.1804 24.5597 23.8893 23.0283 21.5328L17.9594 13.7323L12.8905 21.5327C11.3591 23.8893 8.00475 24.1804 6.08515 22.1256L0.33779 15.9736C-0.136332 15.4661 -0.107416 14.672 0.402376 14.2C0.912168 13.728 1.70979 13.7568 2.18391 14.2643L7.93127 20.4164C8.73314 21.2747 10.1354 21.1517 10.7736 20.1695L16.0263 12.0863C16.4654 11.4106 16.6988 10.6237 16.6988 9.82007V8.1406C16.6988 7.01309 15.9198 6.02945 14.8103 5.76575L0.968122 2.4758C0.290964 2.31485 -0.126922 1.6379 0.0347474 0.963779C0.174529 0.380926 0.701795 -0.00897651 1.27968 0.000157106Z" fill="white"/>
</svg>
